<svg width="100" height="119" viewBox="0 0 100 119" fill="none" xmlns="http://www.w3.org/2000/svg">
<g clip-path="url(#clip0_4003_236)">
<mask id="mask0_4003_236" style="mask-type:luminance" maskUnits="userSpaceOnUse" x="7" y="0" width="81" height="80">
<path d="M7.97949 0H87.9795V80H7.97949V0Z" fill="white"/>
</mask>
<g mask="url(#mask0_4003_236)">
<path d="M69.7185 0H26.2405C16.1552 0 7.97949 8.17573 7.97949 18.261V61.739C7.97949 71.8243 16.1552 80 26.2405 80H69.7185C79.8038 80 87.9795 71.8243 87.9795 61.739V18.261C87.9795 8.17573 79.8038 0 69.7185 0Z" fill="url(#paint0_linear_4003_236)"/>
<path d="M69.7185 0.5H26.2405C16.4314 0.5 8.47949 8.45187 8.47949 18.261V61.739C8.47949 71.5481 16.4314 79.5 26.2405 79.5H69.7185C79.5276 79.5 87.4795 71.5481 87.4795 61.739V18.261C87.4795 8.45187 79.5276 0.5 69.7185 0.5Z" stroke="white" stroke-opacity="0.08"/>
<g style="mix-blend-mode:color-dodge">
<path fill-rule="evenodd" clip-rule="evenodd" d="M67.5446 65.6534V30.0014C67.5446 26.4094 64.5886 23.7914 61.2826 22.2014C57.8216 20.5364 53.1926 19.5664 48.1966 19.5664C43.2016 19.5664 38.5716 20.5364 35.1106 22.2014C31.8046 23.7914 28.8486 26.4094 28.8486 30.0014V64.7844H28.9086C28.8689 65.0727 28.8488 65.3634 28.8486 65.6544C28.8486 69.2464 31.8046 71.8644 35.1106 73.4544C38.5716 75.1194 43.2006 76.0884 48.1966 76.0884C53.1916 76.0884 57.8216 75.1184 61.2826 73.4544C64.5886 71.8644 67.5446 69.2454 67.5446 65.6534ZM33.1966 30.0014C33.1966 29.0314 34.0866 27.5184 36.9956 26.1194C39.7496 24.7944 43.7076 23.9144 48.1966 23.9144C52.6866 23.9144 56.6436 24.7944 59.3976 26.1194C62.3076 27.5194 63.1966 29.0314 63.1966 30.0014C63.1966 30.9714 62.3066 32.4844 59.3976 33.8834C56.6436 35.2084 52.6856 36.0884 48.1966 36.0884C43.7066 36.0884 39.7496 35.2084 36.9956 33.8834C34.0856 32.4844 33.1966 30.9714 33.1966 30.0014ZM63.1966 36.7294C62.5866 37.1274 61.9416 37.4854 61.2826 37.8024C57.8216 39.4674 53.1926 40.4364 48.1966 40.4364C43.2016 40.4364 38.5716 39.4664 35.1106 37.8024C34.4502 37.4863 33.8109 37.1279 33.1966 36.7294V58.9264C33.8109 58.5279 34.4502 58.1695 35.1106 57.8534C38.5716 56.1884 43.2006 55.2194 48.1966 55.2194C53.1916 55.2194 57.8216 56.1884 61.2826 57.8534C61.9416 58.1704 62.5866 58.5284 63.1966 58.9254V36.7294ZM63.1966 65.6534C63.1966 64.6834 62.3066 63.1714 59.3976 61.7714C56.6436 60.4464 52.6856 59.5664 48.1966 59.5664C43.7066 59.5664 39.7496 60.4464 36.9956 61.7714C34.0856 63.1714 33.1966 64.6844 33.1966 65.6534C33.1966 66.6234 34.0866 68.1364 36.9956 69.5364C39.7496 70.8604 43.7076 71.7404 48.1966 71.7404C52.6866 71.7404 56.6436 70.8604 59.3976 69.5364C62.3076 68.1364 63.1966 66.6234 63.1966 65.6534Z" fill="url(#paint1_linear_4003_236)" fill-opacity="0.5"/>
</g>
<path fill-rule="evenodd" clip-rule="evenodd" d="M66.6758 58.6876V58.6936C66.6758 61.7616 64.1337 64.1586 60.9057 65.7106C57.5857 67.3076 53.0917 68.2586 48.1967 68.2586C43.3027 68.2586 38.8077 67.3076 35.4877 65.7106C32.2607 64.1586 29.7188 61.7616 29.7188 58.6936V23.0416C29.7188 19.9736 32.2608 17.5766 35.4888 16.0246C38.8088 14.4276 43.3027 13.4766 48.1977 13.4766C53.0917 13.4766 57.5867 14.4276 60.9067 16.0246C64.1337 17.5766 66.6758 19.9736 66.6758 23.0416V58.6876ZM32.3277 23.0416C32.3277 21.5466 33.6297 19.8136 36.6187 18.3756C39.5147 16.9826 43.6067 16.0856 48.1977 16.0856C52.7877 16.0856 56.8798 16.9826 59.7758 18.3756C62.7648 19.8136 64.0667 21.5466 64.0667 23.0416V23.0456C64.0648 24.5386 62.7617 26.2706 59.7758 27.7076C56.8798 29.1006 52.7877 29.9976 48.1977 29.9976C43.6067 29.9976 39.5147 29.0996 36.6187 27.7076C33.6297 26.2696 32.3277 24.5356 32.3277 23.0416ZM64.0677 28.0376C63.1637 28.8176 62.0807 29.4936 60.9067 30.0576C57.5867 31.6556 53.0917 32.6066 48.1967 32.6066C43.3027 32.6066 38.8077 31.6556 35.4877 30.0576C34.3137 29.4936 33.2307 28.8176 32.3277 28.0376V53.6976C33.2307 52.9176 34.3137 52.2416 35.4877 51.6776C38.8077 50.0796 43.3027 49.1276 48.1977 49.1276C53.0917 49.1276 57.5867 50.0796 60.9067 51.6776C62.0807 52.2416 63.1637 52.9176 64.0667 53.6976L64.0677 28.0376ZM64.0677 58.6936V58.6896C64.0648 57.1956 62.7617 55.4636 59.7758 54.0276C56.8798 52.6346 52.7877 51.7376 48.1977 51.7376C43.6067 51.7376 39.5147 52.6346 36.6187 54.0276C33.6297 55.4656 32.3277 57.1996 32.3277 58.6936C32.3277 60.1876 33.6297 61.9216 36.6187 63.3596C39.5147 64.7526 43.6067 65.6496 48.1977 65.6496C52.7877 65.6496 56.8798 64.7526 59.7758 63.3596C62.7648 61.9216 64.0677 60.1876 64.0677 58.6936Z" fill="url(#paint2_linear_4003_236)" stroke="url(#paint3_linear_4003_236)"/>
</g>
</g>
<path d="M89.3476 93.6969V93.0545H93.175V93.6969H91.632V98H90.8883V93.6969H89.3476ZM94.0208 93.0545H94.9264L96.5008 96.8989H96.5587L98.1332 93.0545H99.0387V98H98.3288V94.4213H98.2829L96.8244 97.9928H96.2352L94.7766 94.4189H94.7308V98H94.0208V93.0545Z" fill="white"/>
<defs>
<linearGradient id="paint0_linear_4003_236" x1="47.9795" y1="0" x2="47.9795" y2="80" gradientUnits="userSpaceOnUse">
<stop stop-color="#272727"/>
<stop offset="1" stop-color="#141414"/>
</linearGradient>
<linearGradient id="paint1_linear_4003_236" x1="73.6316" y1="12.1754" x2="21.0226" y2="81.5234" gradientUnits="userSpaceOnUse">
<stop stop-color="#4642FF"/>
<stop offset="0.432" stop-color="#CB5FF1"/>
<stop offset="0.995" stop-color="#FFD029"/>
</linearGradient>
<linearGradient id="paint2_linear_4003_236" x1="73.6317" y1="5.21556" x2="21.0238" y2="74.5636" gradientUnits="userSpaceOnUse">
<stop stop-color="#514EFF"/>
<stop offset="0.432" stop-color="#DC77FF"/>
<stop offset="0.995" stop-color="#FFD541"/>
</linearGradient>
<linearGradient id="paint3_linear_4003_236" x1="73.6317" y1="5.21556" x2="21.0238" y2="74.5636" gradientUnits="userSpaceOnUse">
<stop stop-color="#514EFF"/>
<stop offset="0.432" stop-color="#DC77FF"/>
<stop offset="0.995" stop-color="#FFD541"/>
</linearGradient>
<clipPath id="clip0_4003_236">
<rect width="80" height="80" fill="white" transform="translate(7.97949)"/>
</clipPath>
</defs>
</svg>
